<svg viewBox="0 0 100 100" fill="none" xmlns="http://www.w3.org/2000/svg">
  <defs>
    <linearGradient id="stdBorderGrad" x1="0%" y1="0%" x2="100%" y2="100%">
      <stop offset="0%" stopColor="#38bdf8" stopOpacity="0.8" />
      <stop offset="50%" stopColor="#06b6d4" stopOpacity="0.5" />
      <stop offset="100%" stopColor="#10b981" stopOpacity="0.8" />
    </linearGradient>
    <linearGradient id="stdBgGrad" x1="0%" y1="0%" x2="100%" y2="100%">
      <stop offset="0%" stopColor="#0f172a" />
      <stop offset="50%" stopColor="#090d16" />
      <stop offset="100%" stopColor="#06121e" />
    </linearGradient>
    <linearGradient id="stdBoltGrad" x1="20%" y1="10%" x2="80%" y2="90%">
      <stop offset="0%" stopColor="#38bdf8" />
      <stop offset="45%" stopColor="#06b6d4" />
      <stop offset="80%" stopColor="#10b981" />
      <stop offset="100%" stopColor="#34d399" />
    </linearGradient>
    <linearGradient id="stdHighlightGrad" x1="30%" y1="10%" x2="70%" y2="90%">
      <stop offset="0%" stopColor="#ffffff" stopOpacity="0.9" />
      <stop offset="60%" stopColor="#67e8f9" stopOpacity="0.4" />
      <stop offset="100%" stopColor="#34d399" stopOpacity="0" />
    </linearGradient>
    <radialGradient id="stdAura" cx="50%" cy="50%" r="50%">
      <stop offset="0%" stopColor="#06b6d4" stopOpacity="0.4" />
      <stop offset="60%" stopColor="#10b981" stopOpacity="0.15" />
      <stop offset="100%" stopColor="#090d16" stopOpacity="0" />
    </radialGradient>
    <filter id="stdGlow" x="-20%" y="-20%" width="140%" height="140%">
      <feGaussianBlur stdDeviation="3.5" result="coloredBlur" />
      <feMerge>
        <feMergeNode in="coloredBlur" />
        <feMergeNode in="SourceGraphic" />
      </feMerge>
    </filter>
  </defs>
  <rect x="3" y="3" width="94" height="94" rx="22" fill="url(#stdBgGrad)" stroke="url(#stdBorderGrad)" strokeWidth="2.5" />
  <rect x="6" y="6" width="88" height="88" rx="19" fill="url(#stdAura)" />
  <path d="M56 16L32 50H50L42 84L70 46H52L56 16Z" fill="url(#stdBoltGrad)" filter="url(#stdGlow)" opacity="0.8" />
  <path d="M56 16L32 50H50L42 84L70 46H52L56 16Z" fill="url(#stdBoltGrad)" stroke="#ffffff" strokeWidth="0.75" strokeOpacity="0.6" strokeLinejoin="round" />
  <path d="M54 20L36 50H50L45 72L64 48H52L54 20Z" fill="url(#stdHighlightGrad)" opacity="0.5" />
</svg>
